<?xml version="1.0" encoding="UTF-8"?>
<svg xmlns="http://www.w3.org/2000/svg" xmlns:xlink="http://www.w3.org/1999/xlink" width="32px" height="32px" viewBox="0 0 32 32" version="1.1">
<g id="surface1">
<path style=" stroke:none;fill-rule:nonzero;fill:rgb(40.392157%,22.745098%,71.764706%);fill-opacity:1;" d="M 8 0 L 24 0 C 28.417969 0 32 3.582031 32 8 L 32 24 C 32 28.417969 28.417969 32 24 32 L 8 32 C 3.582031 32 0 28.417969 0 24 L 0 8 C 0 3.582031 3.582031 0 8 0 Z M 8 0 "/>
<path style=" stroke:none;fill-rule:nonzero;fill:rgb(100%,100%,100%);fill-opacity:1;" d="M 14.257812 5.167969 C 13.929688 5.257812 12.1875 5.726562 10.398438 6.203125 C 8.601562 6.679688 7.046875 7.113281 6.9375 7.171875 C 6.503906 7.390625 6.203125 7.863281 6.203125 8.320312 C 6.203125 8.507812 9.128906 19.570312 9.25 19.84375 C 9.292969 19.941406 9.40625 20.113281 9.503906 20.222656 C 9.601562 20.339844 9.683594 20.460938 9.683594 20.496094 C 9.683594 20.71875 9.980469 21.035156 12.789062 23.847656 C 15.128906 26.179688 15.765625 26.792969 15.9375 26.875 C 16.246094 27.023438 16.71875 27.023438 17 26.871094 C 17.296875 26.714844 25.542969 18.46875 25.675781 18.195312 C 25.753906 18.046875 25.773438 17.925781 25.773438 17.675781 C 25.773438 17.128906 25.789062 17.148438 23.769531 15.113281 L 21.96875 13.304688 L 22.277344 12.171875 C 22.644531 10.839844 22.667969 10.59375 22.480469 10.191406 C 22.351562 9.910156 22.09375 9.644531 21.855469 9.542969 C 21.765625 9.503906 20.648438 9.183594 19.375 8.839844 C 18.097656 8.496094 17.023438 8.195312 16.988281 8.179688 C 16.949219 8.15625 16.824219 7.757812 16.648438 7.097656 C 16.304688 5.78125 16.257812 5.652344 16.015625 5.40625 C 15.597656 4.972656 15.171875 4.914062 14.257812 5.167969 Z M 15.441406 5.699219 C 15.523438 5.75 15.617188 5.855469 15.660156 5.921875 C 15.78125 6.140625 18.722656 17.304688 18.691406 17.429688 C 18.65625 17.574219 18.46875 17.792969 18.316406 17.867188 C 18.25 17.902344 16.625 18.351562 14.703125 18.863281 C 12.78125 19.367188 11.074219 19.824219 10.90625 19.871094 C 10.402344 20.007812 10.132812 19.96875 9.90625 19.726562 C 9.824219 19.640625 9.523438 18.554688 8.320312 14.0625 C 7.503906 11.003906 6.832031 8.414062 6.816406 8.308594 C 6.796875 8.070312 6.898438 7.886719 7.136719 7.734375 C 7.25 7.65625 8.128906 7.40625 10.242188 6.84375 C 11.863281 6.414062 13.5625 5.960938 14.023438 5.835938 C 14.976562 5.578125 15.230469 5.554688 15.441406 5.699219 Z M 19.433594 9.507812 C 21.503906 10.070312 21.648438 10.117188 21.789062 10.25 C 22.09375 10.546875 22.191406 10.070312 20.515625 16.304688 C 19.6875 19.386719 18.976562 21.972656 18.945312 22.050781 C 18.859375 22.234375 18.648438 22.359375 18.40625 22.359375 C 18.285156 22.359375 16.898438 22.003906 14.703125 21.40625 C 12.773438 20.882812 11.195312 20.445312 11.199219 20.441406 C 11.203125 20.4375 12.820312 20.007812 14.789062 19.484375 C 16.757812 18.964844 18.445312 18.496094 18.546875 18.445312 C 18.957031 18.238281 19.25 17.832031 19.292969 17.386719 C 19.316406 17.160156 19.226562 16.804688 18.234375 13.054688 C 17.636719 10.808594 17.140625 8.949219 17.128906 8.917969 C 17.117188 8.890625 17.128906 8.875 17.164062 8.890625 C 17.199219 8.898438 18.21875 9.179688 19.433594 9.507812 Z M 23.484375 15.6875 C 24.933594 17.140625 25.148438 17.375 25.171875 17.511719 C 25.242188 17.886719 25.453125 17.660156 20.984375 22.125 C 18.695312 24.414062 16.773438 26.304688 16.722656 26.324219 C 16.664062 26.347656 16.523438 26.355469 16.398438 26.347656 C 16.21875 26.328125 16.144531 26.300781 15.96875 26.148438 C 15.65625 25.882812 10.769531 20.976562 10.84375 21 C 10.878906 21.015625 12.515625 21.460938 14.476562 22 C 17.6875 22.878906 18.074219 22.972656 18.382812 22.976562 C 18.675781 22.984375 18.757812 22.964844 18.949219 22.867188 C 19.230469 22.71875 19.507812 22.402344 19.582031 22.148438 C 19.613281 22.042969 20.121094 20.167969 20.703125 17.984375 C 21.292969 15.804688 21.789062 14.023438 21.800781 14.023438 C 21.8125 14.023438 22.570312 14.769531 23.484375 15.6875 Z M 23.484375 15.6875 "/>
</g>
</svg>
